<?xml version="1.0" standalone="no"?><!DOCTYPE svg PUBLIC "-//W3C//DTD SVG 1.1//EN" "http://www.w3.org/Graphics/SVG/1.1/DTD/svg11.dtd"><svg t="1528090249099" class="icon" style="" viewBox="0 0 1024 1024" version="1.1" xmlns="http://www.w3.org/2000/svg" p-id="1083" xmlns:xlink="http://www.w3.org/1999/xlink" width="200" height="200"><defs><style type="text/css"></style></defs><path d="M478.72 640c-38.4-40.96-79.36-92.16-115.2-148.48C337.92 450.56 317.44 409.6 345.6 384L181.76 171.52C151.04 202.24 69.12 358.4 296.96 660.48c240.64 317.44 424.96 279.04 460.8 250.88l-161.28-207.36C565.76 727.04 535.04 701.44 478.72 640zM878.08 785.92 878.08 785.92 752.64 624.64C742.4 611.84 724.48 609.28 711.68 619.52L652.8 665.6l161.28 209.92 58.88-46.08 0 0C885.76 816.64 885.76 798.72 878.08 785.92zM460.8 296.96 460.8 296.96C473.6 286.72 476.16 266.24 465.92 256l0 0L335.36 89.6C325.12 74.24 307.2 74.24 294.4 81.92L235.52 128l166.4 212.48C401.92 343.04 460.8 296.96 460.8 296.96z" p-id="1084"></path></svg>