<?xml version="1.0" standalone="no"?><!DOCTYPE svg PUBLIC "-//W3C//DTD SVG 1.1//EN" "http://www.w3.org/Graphics/SVG/1.1/DTD/svg11.dtd"><svg t="1528090238015" class="icon" style="" viewBox="0 0 1024 1024" version="1.1" xmlns="http://www.w3.org/2000/svg" p-id="853" xmlns:xlink="http://www.w3.org/1999/xlink" width="200" height="200"><defs><style type="text/css"></style></defs><path d="M480.493425 264.641309c-191.932334 0-347.527065 155.591661-347.527065 347.527065 0 191.932334 155.594731 347.527065 347.527065 347.527065s347.527065-155.594731 347.527065-347.527065C828.02049 420.23297 672.425759 264.641309 480.493425 264.641309zM659.187247 581.173452l-68.521606 66.791196 16.175401 94.311992c5.432733 31.662117-12.654204 45.50745-41.649586 30.262234l-84.697007-44.529169-84.697007 44.529169c-28.432563 14.947434-47.189765 2.02717-41.649586-30.262234l16.175401-94.311992-68.521606-66.791196c-23.001877-22.420639-16.508999-44.252877 15.908318-48.962132l94.693686-13.760398 42.349527-85.809341c14.217816-28.805046 36.986379-29.375028 51.483558 0l42.349527 85.809341 94.693686 13.760398C675.067936 536.829502 682.646542 558.307675 659.187247 581.173452zM805.366537 64.303538c-0.681522 0-214.195384 0-214.876905 0-11.596106 0-20.892843 8.117888-23.619954 18.865673l-66.239634 130.60764c0 0 141.828192 8.53335 225.607294 89.208764l98.933243-199.641923c2.932796-4.075829 5.021364-8.81169 5.021364-14.217816C830.189899 75.417667 819.075771 64.303538 805.366537 64.303538zM456.854029 213.776851 390.614395 83.169211c-2.727111-10.747785-12.023848-18.865673-23.619954-18.865673-0.681522 0-214.195384 0-214.876905 0-13.70821 0-24.823362 11.115152-24.823362 24.823362 0 5.406127 2.087545 10.141988 5.021364 14.217816l98.933243 199.641923C315.025836 222.310202 456.854029 213.776851 456.854029 213.776851z" p-id="854"></path></svg>